<?xml version="1.0" encoding="UTF-8"?>
<svg version="1.1" xmlns="http://www.w3.org/2000/svg" width="330" height="136">
<path d="M0 0 C5.64081002 1.97603531 9.30145859 2.32445303 15 0.1875 C22.94159445 -2.76223508 30.95050941 -3.67474396 38.9375 -0.3125 C47.12310479 3.90657761 47.12310479 3.90657761 48.828125 7.85546875 C49 9.9375 49 9.9375 47.671875 11.61328125 C46.72054687 12.42345703 46.72054687 12.42345703 45.75 13.25 C40.51189569 18.20581126 38.85113117 22.69529954 38.5625 29.875 C38.75831202 36.41022628 40.13295787 41.01937471 44.75390625 45.72265625 C47.06303704 47.76182603 49.23964107 49.55732053 52 50.9375 C50.72905822 61.66810974 43.9373422 71.78570919 36 78.9375 C31.55936852 81.71958237 27.08418678 81.45339542 22 80.9375 C19.64002064 80.27471359 17.38166162 79.46293597 15.08203125 78.6171875 C10.25415185 77.0411068 6.31235109 77.73659154 1.6875 79.4375 C-3.2507089 81.19873833 -7.7961634 81.72029935 -13 80.9375 C-23.687997 75.7990399 -30.29065357 63.01937281 -34.26953125 52.40087891 C-38.40689846 40.23980174 -39.62190257 25.08064719 -34.25390625 13.12890625 C-30.30011434 6.21900824 -25.37098288 2.03972236 -18 -1.0625 C-11.39638402 -2.62861436 -6.38618118 -2.31210055 0 0 Z " fill="#000000" transform="translate(37,28.0625)"/>
<path d="M0 0 C52.74235808 0 52.74235808 0 63 9 C70.10284017 17.09537679 72.60807252 26.42514313 72.28125 37.046875 C71.39404425 46.36253539 67.99718679 53.35071862 61.1484375 59.72265625 C51.87968034 67.23736574 42.53557621 67.40869538 30.9375 67.1875 C24.0384375 67.0946875 24.0384375 67.0946875 17 67 C17 78.55 17 90.1 17 102 C11.39 102 5.78 102 0 102 C0 68.34 0 34.68 0 0 Z M17 14 C17 26.87 17 39.74 17 53 C20.795 53.0825 24.59 53.165 28.5 53.25 C29.68013672 53.28641602 30.86027344 53.32283203 32.07617188 53.36035156 C38.89018834 53.43166639 43.21779032 52.66922123 49 49 C53.41382358 44.47002317 55.09479061 40.38177842 55.3125 34.125 C55.17039277 28.14761458 53.54521479 23.99968972 49.875 19.25 C43.0004678 13.86993132 35.37614519 13.58529797 26.9375 13.8125 C23.658125 13.874375 20.37875 13.93625 17 14 Z " fill="#000000" transform="translate(117,7)"/>
<path d="M0 0 C6.18171921 3.56234666 10.37859199 8.38470888 12.3046875 15.328125 C12.71167136 19.71546592 12.65396662 24.07758365 12.59765625 28.48046875 C12.59341141 29.73573868 12.58916656 30.99100861 12.58479309 32.28431702 C12.57089378 35.60041837 12.54400252 38.91588552 12.51068115 42.23181152 C12.4798367 45.6238867 12.46625725 49.01602774 12.45117188 52.40820312 C12.41816377 59.04837308 12.3664119 65.68816239 12.3046875 72.328125 C7.3546875 72.328125 2.4046875 72.328125 -2.6953125 72.328125 C-3.1903125 67.873125 -3.1903125 67.873125 -3.6953125 63.328125 C-4.7059375 64.25625 -5.7165625 65.184375 -6.7578125 66.140625 C-12.23530095 71.17097154 -18.24461087 72.87769006 -25.5703125 72.765625 C-26.27140137 72.75732666 -26.97249023 72.74902832 -27.69482422 72.74047852 C-34.44618361 72.52095387 -39.48258224 71.26906246 -44.49609375 66.6796875 C-49.91950642 60.75147031 -51.23265907 55.29651363 -51.06640625 47.3359375 C-50.38749121 41.83315243 -48.08452775 38.24636558 -43.79296875 34.80078125 C-36.12634197 29.72403223 -28.56974107 28.86056828 -19.5703125 28.203125 C-18.48621094 28.11675781 -17.40210938 28.03039062 -16.28515625 27.94140625 C-12.07015949 27.61316794 -7.92536154 27.328125 -3.6953125 27.328125 C-3.81040911 25.91061937 -3.93784908 24.49411331 -4.0703125 23.078125 C-4.17472656 21.89476562 -4.17472656 21.89476562 -4.28125 20.6875 C-4.72164136 18.17810019 -5.32648229 16.47385884 -6.6953125 14.328125 C-11.89825909 11.41447491 -15.76767374 10.76358798 -21.6953125 11.328125 C-24.99632381 12.72737445 -24.99632381 12.72737445 -27.6953125 14.328125 C-28.3553125 14.328125 -29.0153125 14.328125 -29.6953125 14.328125 C-30.3553125 16.308125 -31.0153125 18.288125 -31.6953125 20.328125 C-36.6453125 20.328125 -41.5953125 20.328125 -46.6953125 20.328125 C-46.588291 13.47874885 -45.45733443 9.98530196 -40.66015625 5.05078125 C-29.86839917 -4.41077914 -12.97529835 -5.60028075 0 0 Z M-33.6953125 45.328125 C-34.83541021 49.24721086 -35.10419882 51.35971004 -33.5078125 55.140625 C-30.93332126 58.2477696 -28.91015903 59.19784202 -24.890625 59.62890625 C-16.82500232 59.74705141 -16.82500232 59.74705141 -9.6953125 56.328125 C-5.304886 51.91010128 -5.304886 51.91010128 -3.59765625 46.1640625 C-3.60925781 45.35195312 -3.62085938 44.53984375 -3.6328125 43.703125 C-3.64183594 42.88585937 -3.65085937 42.06859375 -3.66015625 41.2265625 C-3.67175781 40.60007813 -3.68335938 39.97359375 -3.6953125 39.328125 C-19.89157969 38.42936108 -19.89157969 38.42936108 -33.6953125 45.328125 Z " fill="#000000" transform="translate(242.6953125,36.671875)"/>
<path d="M0 0 C5.94 0 11.88 0 18 0 C23.61 18.15 29.22 36.3 35 55 C36.89121399 52.16317901 37.71320689 50.10671073 38.69580078 46.88598633 C39.01598175 45.84513382 39.33616272 44.80428131 39.66604614 43.73188782 C40.00570404 42.60993515 40.34536194 41.48798248 40.6953125 40.33203125 C41.04761932 39.18208176 41.39992615 38.03213226 41.76290894 36.84733582 C42.88822522 33.1704506 44.00668536 29.4915201 45.125 25.8125 C45.88626847 23.32082592 46.64798167 20.82928768 47.41015625 18.33789062 C49.27860369 12.2268252 51.14090442 6.11391661 53 0 C58.61 0 64.22 0 70 0 C68.44311828 8.11885395 65.78173196 15.76583366 63.01953125 23.53515625 C62.52320811 24.9411784 62.02717604 26.34730333 61.53141785 27.75352478 C60.49339556 30.69393479 59.45154536 33.63295235 58.40698242 36.57104492 C57.0862143 40.28713178 55.7754801 44.0066627 54.46777821 47.72736454 C53.44502899 50.63331986 52.41652191 53.53721365 51.38644981 56.44058037 C50.90198865 57.8083055 50.41925586 59.17664441 49.9384861 60.54567146 C47.32302375 67.98330961 44.54241999 75.33374433 41.4597168 82.59155273 C41.18963964 83.24471749 40.91956247 83.89788225 40.64130116 84.57083988 C38.1353353 90.33585826 34.84943923 95.64448766 28.9375 98.3125 C27.96103516 98.77076172 27.96103516 98.77076172 26.96484375 99.23828125 C20.73142287 101.65481618 14.63077212 101.06630772 8 101 C8 96.71 8 92.42 8 88 C10.5678125 87.690625 10.5678125 87.690625 13.1875 87.375 C16.91665403 86.68956423 19.51325753 86.20936645 22.0625 83.3125 C25.72168413 77.06677315 25.72168413 77.06677315 25.34466553 70.10171509 C24.17197593 66.49128308 22.87238321 62.94148915 21.5234375 59.39453125 C21.03511427 58.06630946 20.54862394 56.7374125 20.06387329 55.40788269 C18.78413281 51.91242317 17.48089622 48.42620227 16.17211914 44.94152832 C14.85792089 41.43143158 13.56404217 37.91387934 12.26953125 34.39648438 C10.80645603 30.42174865 9.34195971 26.44769131 7.85873413 22.48042297 C5.08176142 15.03284228 2.47055376 7.55501261 0 0 Z " fill="#000000" transform="translate(260,35)"/>
<path d="M0 0 C-0.40258806 8.69590203 -2.38461144 14.86859835 -8.875 20.875 C-13.43534919 24.59617712 -17.07383269 26 -23 26 C-24.67702261 20.92234822 -23.07905012 16.75823842 -21 12 C-16.13697762 4.48092054 -9.29371856 -0.92937186 0 0 Z " fill="#000000" transform="translate(67,0)"/>
</svg>
